{"title":"IMPACT!.WRESTLING.2018.02.01.HDTV.XviD-FICEK9","magnet":"magnet:?xt=urn:btih:cff1f8cbdd1028463836a15b0190c09f378335e5&dn=IMPACT%21.WRESTLING.2018.02.01.HDTV.XviD-FICEK9&tr=udp%3A%2F%2Ftracker.leechers-paradise.org%3A6969&tr=udp%3A%2F%2Fzer0day.ch%3A1337&tr=udp%3A%2F%2Fopen.demonii.com%3A1337&tr=udp%3A%2F%2Ftracker.coppersurfer.tk%3A6969&tr=udp%3A%2F%2Fexodus.desync.com%3A6969","uploader":"FICEK9","categoryP":"video","categoryS":"tv_shows","size":"939586170","seeders":"0","leechers":"0","description":"\r\n   General\r\n      Complete name : IMPACT!.WRESTLING.2018.02.01.HDTV.XviD-FICEK9.avi\r\n      Format : AVI\r\n      Format/Info : Audio Video Interleave\r\n      File size : 896 MiB\r\n      Duration : 1h 31mn\r\n      Overall bit rate mode : Variable\r\n      Overall bit rate : 1 373 Kbps\r\n      Writing application : Lavf57.41.100\r\n   Video #0\r\n      ID : 0\r\n      Format : xvid\r\n      Codec ID : xvid\r\n      Duration : 1h 31mn\r\n      Bit rate : 1 260 Kbps\r\n      Width : 720 pixels\r\n      Height : 576 pixels\r\n      Display aspect ratio : 16:9\r\n      Frame rate : 29.970 fps\r\n      Standard : PAL\r\n      Bits/(Pixel*Frame) : 0.101\r\n      Stream size : 822 MiB (92%)\r\n   Audio #1\r\n      ID : 1\r\n      Format : MPEG Audio\r\n      Format version : Version 1\r\n      Format profile : Layer 3\r\n      Mode : Joint stereo\r\n      Mode extension : MS Stereo\r\n      Codec ID : 55\r\n      Codec ID/Hint : MP3\r\n      Duration : 1h 31mn\r\n      Bit rate mode : Variable\r\n      Bit rate : 99.9 Kbps\r\n      Channel(s) : 2 channels\r\n      Sampling rate : 48.0 KHz\r\n      Compression mode : Lossy\r\n      Stream size : 65.2 MiB (7%)\r\n      Alignment : Aligned on interleaves\r\n      Interleave, duration : 24 ms (0.72 video frame)\r\n      Writing library : LAME3.99.5&#x15E;&#x15E;&#x15E;&#x15E;&#x155;&#x20AC;\u00024\u0015\u0015","last_updated":"2018-05-21T12:03:01.123Z","parsed":{"xt":"urn:btih:cff1f8cbdd1028463836a15b0190c09f378335e5","dn":"IMPACT!.WRESTLING.2018.02.01.HDTV.XviD-FICEK9","tr":["udp://exodus.desync.com:6969","udp://open.demonii.com:1337","udp://tracker.coppersurfer.tk:6969","udp://tracker.leechers-paradise.org:6969","udp://zer0day.ch:1337"],"infoHash":"cff1f8cbdd1028463836a15b0190c09f378335e5","infoHashBuffer":{"type":"Buffer","data":[207,241,248,203,221,16,40,70,56,54,161,91,1,144,192,159,55,131,53,229]},"name":"IMPACT!.WRESTLING.2018.02.01.HDTV.XviD-FICEK9","announce":["udp://exodus.desync.com:6969","udp://open.demonii.com:1337","udp://tracker.coppersurfer.tk:6969","udp://tracker.leechers-paradise.org:6969","udp://zer0day.ch:1337"],"urlList":[]}}